<svg xmlns="http://www.w3.org/2000/svg" width="139" height="98" viewBox="0 0 139 98" style="background:transparent"> <defs> <filter id="logo_pay-off-a" color-interpolation-filters="auto"> <feColorMatrix in="SourceGraphic" values="0 0 0 0 1.000000 0 0 0 0 1.000000 0 0 0 0 1.000000 0 0 0 1.000000 0"/> </filter> </defs> <g fill="none" fill-rule="evenodd"> <rect width="139" height="98" fill="transparent"/> <g filter="url(#logo_pay-off-a)"> <path fill="#EBEBEB" d="M-4.13202352e-13 47.1348976L-4.13202352e-13 85.5018686 5.11134731 85.5018686 5.11134731 83.1859273C7.12529462 85.1547716 9.41084048 86.1382132 11.9709264 86.1382132 14.9996914 86.1382132 17.5068303 85.0331896 19.4903821 82.8221617 21.4896219 80.5954459 22.4887515 77.7794494 22.4887515 74.3712309 22.4887515 71.0708674 21.4974659 68.3146814 19.5139141 66.1036536 17.5293818 63.8769377 15.0447944 62.7630895 12.0621129 62.7630895 9.47261199 62.7630895 7.15470963 63.8239907 5.11134731 65.9448125L5.11134731 47.1348976-4.13202352e-13 47.1348976zM15.4928829 79.5963162C14.3260878 80.9131279 12.856318 81.573985 11.0855347 81.573985 9.20689645 81.573985 7.69300421 80.9131279 6.54189703 79.5963162 5.39177035 78.3099 4.81621676 76.5910832 4.81621676 74.4398659 4.81621676 72.3504201 5.39863385 70.6531743 6.56444854 69.3510701 7.74497072 68.0332779 9.27455096 67.3753623 11.1531893 67.3753623 12.9102455 67.3753623 14.3711908 68.0568099 15.537986 69.4197051 16.6881126 70.7522048 17.2636662 72.4788656 17.2636662 74.5987069 17.2636662 76.5979467 16.6734051 78.264797 15.4928829 79.5963162L15.4928829 79.5963162zM30.1984243 82.7319557C32.4398476 85.0027941 35.2185851 86.1382132 38.5356171 86.1382132 41.8820641 86.1382132 44.7059045 85.0253456 47.0081189 82.7996102 49.2946453 80.5581869 50.4379085 77.7794494 50.4379085 74.4624174 50.4379085 71.1777419 49.3024893 68.4048874 47.0306704 66.1497371 44.7284561 63.8926257 41.9271671 62.7630895 38.6268036 62.7630895 35.3401671 62.7630895 32.5535856 63.8847817 30.2660788 66.1262051 27.9795524 68.3676284 26.8353087 71.0855749 26.8353087 74.2810249 26.8353087 77.6735554 27.9560204 80.4905323 30.1984243 82.7319557L30.1984243 82.7319557zM33.8782413 69.3285186C35.0901395 68.0264144 36.6716863 67.3753623 38.6268036 67.3753623 40.6103554 67.3753623 42.2075902 68.0264144 43.4194883 69.3285186 44.614718 70.6159153 45.2138036 72.3357126 45.2138036 74.4849689 45.2138036 76.6352057 44.614718 78.355003 43.4194883 79.6414192 42.2222977 80.9297964 40.6250629 81.573985 38.6268036 81.573985 36.6422713 81.573985 35.0450365 80.9209719 33.8331383 79.6188677 32.6526161 78.3324515 32.0603941 76.5842197 32.0603941 74.3712309 32.0603941 72.3131611 32.6673237 70.6306228 33.8782413 69.3285186L33.8782413 69.3285186zM76.0171965 74.4398659C76.0171965 70.7894638 75.0778773 67.9352279 73.199239 65.877158 71.3058932 63.8024197 68.7320803 62.7630895 65.4768198 62.7630895 62.2499938 62.7630895 59.6614734 63.8308542 57.7063561 65.9673641 55.7688878 68.1332889 54.8001536 70.9649733 54.8001536 74.4624174 54.8001536 77.9922179 55.7992833 80.8239024 57.7975426 82.9584512 59.7977629 85.0782926 62.4460938 86.1382132 65.7493989 86.1382132 66.8995255 86.1382132 67.9663097 86.0176117 68.9507319 85.7744477 69.935154 85.5332446 70.8519217 85.1498691 71.7000543 84.6272625 72.5491674 84.1056364 73.3433726 83.4388963 74.0846307 82.6290032 74.8278498 81.8200906 75.5318489 80.8454734 76.198589 79.7100542L71.8824273 77.3029263C70.8372142 78.9374201 69.9067195 80.0581318 69.0870214 80.6631004 68.2555573 81.27003 67.2025001 81.573985 65.9307914 81.573985 64.2953171 81.573985 62.9539929 81.0435344 61.9097603 79.9816528 60.8645471 78.9070246 60.274286 77.4617674 60.1379965 75.6429396L75.9936645 75.6429396 76.0171965 74.4398659zM60.4792105 71.4640479C60.6439346 70.8286838 60.8880791 70.2609742 61.2057612 69.7599386 61.5234432 69.2598836 61.9068188 68.833366 62.3519658 68.4774444 62.7980934 68.1215229 63.295207 67.8489438 63.8393846 67.6597073 64.3865037 67.4694903 64.9689207 67.3753623 65.5895773 67.3753623 68.3153678 67.3753623 70.0341845 68.7382575 70.7470082 71.4640479L60.4792105 71.4640479zM81.6423259 85.5018686L86.7536732 85.5018686 86.7536732 63.3768826 81.6423259 63.3768826 81.6423259 85.5018686zM81.8462699 56.5624066C82.497322 57.2134587 83.2856441 57.5389847 84.2102558 57.5389847 85.1329064 57.5389847 85.9133845 57.2134587 86.5487486 56.5624066 87.1988202 55.912335 87.5253268 55.1240128 87.5253268 54.1994012 87.5253268 53.2767506 87.1988202 52.4962724 86.5487486 51.8599278 85.896716 51.2098562 85.1103549 50.8833497 84.1867238 50.8833497 83.2768196 50.8833497 82.497322 51.2098562 81.8462699 51.8599278 81.1961983 52.5109799 80.8696918 53.2845946 80.8696918 54.1778302 80.8696918 55.1161688 81.1961983 55.912335 81.8462699 56.5624066L81.8462699 56.5624066zM113.440926 74.4398659C113.440926 70.7894638 112.501607 67.9352279 110.623949 65.877158 108.730604 63.8024197 106.156791 62.7630895 102.90055 62.7630895 99.6747042 62.7630895 97.0861838 63.8308542 95.1310665 65.9673641 93.1926177 68.1332889 92.224864 70.9649733 92.224864 74.4624174 92.224864 77.9922179 93.2239937 80.8239024 95.222253 82.9584512 97.2224733 85.0782926 99.8708042 86.1382132 103.173129 86.1382132 104.323255 86.1382132 105.392001 86.0176117 106.377403 85.7744477 107.359864 85.5332446 108.276632 85.1498691 109.124765 84.6272625 109.972897 84.1056364 110.768083 83.4388963 111.511302 82.6290032 112.25256 81.8200906 112.956559 80.8454734 113.623299 79.7100542L109.306157 77.3029263C108.261925 78.9374201 107.330449 80.0581318 106.513693 80.6631004 105.679287 81.27003 104.62721 81.573985 103.355502 81.573985 101.720028 81.573985 100.378703 81.0435344 99.3344707 79.9816528 98.2892575 78.9070246 97.6989964 77.4617674 97.5627069 75.6429396L113.418375 75.6429396 113.440926 74.4398659zM97.9029404 71.4640479C98.070606 70.8286838 98.311809 70.2609742 98.6304716 69.7599386 98.9481536 69.2598836 99.3305487 68.833366 99.7766762 68.4774444 100.224765 68.1215229 100.718937 67.8489438 101.266056 67.6597073 101.811214 67.4694903 102.393631 67.3753623 103.014288 67.3753623 105.739098 67.3753623 107.458895 68.7382575 108.170738 71.4640479L97.9029404 71.4640479zM119.104295 85.5018686L124.237214 85.5018686 124.237214 74.8252024C124.237214 72.069997 124.586272 70.1393922 125.282427 69.0324075 125.99427 67.9116959 127.198324 67.3528108 128.894589 67.3528108 130.453585 67.3528108 131.529193 67.7763868 132.121415 68.6245195 132.726384 69.4589251 133.029358 70.9649733 133.029358 73.1456057L133.029358 85.5018686 138.163257 85.5018686 138.163257 71.9415515C138.163257 68.8225805 137.54162 66.5723326 136.299326 65.1947299 134.860933 63.5749437 132.853849 62.7630895 130.280036 62.7630895 128.038613 62.7630895 126.025646 63.6494617 124.237214 65.4212255L124.237214 63.3768826 119.104295 63.3768826 119.104295 85.5018686zM3.72889928e-13.612812597L3.72889928e-13 38.9797836 5.11134731 38.9797836 5.11134731 36.6638423C7.12529462 38.6317061 9.41084048 39.6161282 11.9709264 39.6161282 14.9996914 39.6161282 17.5068303 38.5111046 19.4903821 36.3000767 21.4896219 34.0733609 22.4887515 31.2573644 22.4887515 27.8491459 22.4887515 24.5487824 21.4974659 21.7925964 19.5139141 19.5815686 17.5293818 17.3548527 15.0447944 16.2410046 12.0621129 16.2410046 9.47261199 16.2410046 7.15470963 17.3019057 5.11134731 19.4217471L5.11134731.612812597 3.72889928e-13.612812597zM15.4928829 33.0742312C14.3260878 34.3910429 12.856318 35.049939 11.0855347 35.049939 9.20689645 35.049939 7.69300421 34.3910429 6.54189703 33.0742312 5.39177035 31.787815 4.81621676 30.0689982 4.81621676 27.9177809 4.81621676 25.8283351 5.39863385 24.1310893 6.56444854 22.8289851 7.74497072 21.5111929 9.27455096 20.8532773 11.1531893 20.8532773 12.9102455 20.8532773 14.3711908 21.5347249 15.537986 22.8976201 16.6881126 24.2301198 17.2636662 25.9567806 17.2636662 28.0766219 17.2636662 30.0758617 16.6734051 31.742712 15.4928829 33.0742312L15.4928829 33.0742312zM28.0991734 38.9797836L33.2105207 38.9797836 33.2105207.612812597 28.0991734.612812597 28.0991734 38.9797836zM39.8798828 38.9797836L44.9912301 38.9797836 44.9912301 16.8557782 39.8798828 16.8557782 39.8798828 38.9797836zM40.0848073 10.0403216C40.7348789 10.6913737 41.523201 11.0168997 42.4478127 11.0168997 43.3704633 11.0168997 44.1509415 10.6913737 44.7872861 10.0403216 45.4373577 9.38828898 45.7638642 8.60192786 45.7638642 7.67731621 45.7638642 6.75466557 45.4373577 5.97418744 44.7872861 5.33784284 44.136234 4.68581024 43.3479118 4.36126469 42.4252612 4.36126469 41.515357 4.36126469 40.7348789 4.68581024 40.0848073 5.33784284 39.4337552 5.98889494 39.1082292 6.76152907 39.1082292 7.65476471 39.1082292 8.59408386 39.4337552 9.38828898 40.0848073 10.0403216L40.0848073 10.0403216zM51.6370601 51.019345L56.7484074 51.019345 56.7484074 16.8557782 51.6370601 16.8557782 51.6370601 51.019345zM51.8410042 10.0403216C52.4930368 10.6913737 53.2803784 11.0168997 54.20499 11.0168997 55.1276407 11.0168997 55.9081188 10.6913737 56.5434829 10.0403216 57.1955155 9.38828898 57.5220221 8.60192786 57.5220221 7.67731621 57.5220221 6.75466557 57.1955155 5.97418744 56.5434829 5.33784284 55.8934113 4.68581024 55.1050892 4.36126469 54.1824385 4.36126469 53.2735149 4.36126469 52.4930368 4.68581024 51.8410042 5.33784284 51.1909326 5.98889494 50.864426 6.76152907 50.864426 7.65476471 50.864426 8.59408386 51.1909326 9.38828898 51.8410042 10.0403216L51.8410042 10.0403216zM74.4258447 21.6259114L74.4258447 16.8547977 68.8605259 16.8547977 68.8605259 9.56379851C68.8605259 7.74497072 69.0193669 6.51934553 69.3370489 5.88300093 69.654731 5.23292933 70.2685241 4.90642277 71.1764672 4.90642277 71.8883103 4.90642277 72.797234 5.18782632 73.9032382 5.74671141L74.4258447 6.01929045 74.4258447.795185625C73.046281.264735042 71.9030178 5.03905308e-13 70.9950747 5.03905308e-13 68.4516573 5.03905308e-13 66.5132085.803029627 65.1797283 2.40712788 64.2109941 3.55921556 63.726627 5.52805987 63.726627 8.31366081L63.726627 16.8547977 61.9097603 16.8547977 61.9097603 21.6259114 63.726627 21.6259114 63.726627 38.9797836 68.8605259 38.9797836 68.8605259 21.6259114 74.4258447 21.6259114zM88.2342284 21.6259114L88.2342284 16.8547977 84.2583003 16.8547977 84.2583003 8.74410038 79.146953 8.74410038 79.146953 16.8547977 76.9653401 16.8547977 76.9653401 21.6259114 79.146953 21.6259114 79.146953 38.9797836 84.2583003 38.9797836 84.2583003 21.6259114 88.2342284 21.6259114zM106.065604 51.019345L111.176952 51.019345 111.176952 16.8557782 106.065604 16.8557782 106.065604 51.019345zM106.269548 10.0403216C106.9206 10.6913737 107.708922 11.0168997 108.631573 11.0168997 109.556185 11.0168997 110.336663 10.6913737 110.972027 10.0403216 111.623079 9.38828898 111.948605 8.60192786 111.948605 7.67731621 111.948605 6.75466557 111.623079 5.97418744 110.972027 5.33784284 110.319994 4.68581024 109.533633 4.36126469 108.609022 4.36126469 107.701078 4.36126469 106.9206 4.68581024 106.269548 5.33784284 105.617516 5.98889494 105.293951 6.76152907 105.293951 7.65476471 105.293951 8.59408386 105.617516 9.38828898 106.269548 10.0403216L106.269548 10.0403216zM137.864205 27.9177809C137.864205 24.2673788 136.925866 21.4131429 135.047228 19.3531121 133.153882 17.2783737 130.580069 16.2410046 127.324809 16.2410046 124.097983 16.2410046 121.509462 17.3087692 119.554345 19.4452791 117.616877 21.6112039 116.648142 24.4419079 116.648142 27.9403324 116.648142 31.470133 117.647272 34.2998564 119.645531 36.4363662 121.645752 38.5562076 124.294083 39.6161282 127.597388 39.6161282 128.746534 39.6161282 129.814298 39.4945462 130.798721 39.2523627 131.783143 39.0111597 132.69991 38.6277841 133.548043 38.1051775 134.396176 37.5835514 135.191361 36.9168113 135.932619 36.1069182 136.675839 35.2960446 137.379838 34.3233884 138.046578 33.1879692L133.730416 30.7808414C132.685203 32.4153351 131.754708 33.5360468 130.93501 34.1410154 130.102566 34.747945 129.050489 35.049939 127.77878 35.049939 126.142325 35.049939 124.801982 34.5214494 123.757749 33.4595678 122.712536 32.3849396 122.122275 30.9396824 121.985985 29.1208546L137.841653 29.1208546 137.864205 27.9177809zM122.327199 24.9419629C122.491923 24.3056183 122.736068 23.7369282 123.05375 23.2378537 123.371432 22.7377986 123.753827 22.3103005 124.199955 21.9553595 124.646082 21.5994379 125.143196 21.3268589 125.687373 21.1376223 126.232531 20.9474053 126.816909 20.8532773 127.437566 20.8532773 130.163357 20.8532773 131.882173 22.2161725 132.594997 24.9419629L122.327199 24.9419629z"/> </g> </g> </svg>